# xmcd
#
# Track frame offsets:
#	150
#	20697
#	42165
#	58526
#	82407
#	103539
#	126824
#	148712
#	181379
#	201261
#	231851
#	258080
#	276343
#
# Disc length: 4052 seconds
#
# Revision: 0
# Processed by: cddbd v1.5.2PL0 Copyright (c) Steve Scherf et al.
# Submitted via: EZCDAudioConverter 5.1.1.1
#
DISCID=be0fd20d
DTITLE=Rebecca Downes - BeLieve 
DYEAR=2017
DGENRE=Blues
TTITLE0=Never Gonna Learn
TTITLE1=Walking With Shadows
TTITLE2=Another Piece Of My Heart
TTITLE3=Night Train
TTITLE4=Long Long Time
TTITLE5=Sweetness
TTITLE6=Back To The Start
TTITLE7=I'd Rather Go Blind
TTITLE8=Basement Of My Heart
TTITLE9=Sailing On A Pool Of Tears
TTITLE10=Believe
TTITLE11=1000 Years
TTITLE12=With A Little Help From My Friends
EXTD=
EXTT0=
EXTT1=
EXTT2=
EXTT3=
EXTT4=
EXTT5=
EXTT6=
EXTT7=
EXTT8=
EXTT9=
EXTT10=
EXTT11=
EXTT12=
PLAYORDER=
